name Walk8.mot
datacolumns 19
datarows 10
range 2.72000000 2.76500000
endheader

                time	   L_ground_force_vx	   L_ground_force_vy	   L_ground_force_vz	   L_ground_force_px	   L_ground_force_py	   L_ground_force_pz	   R_ground_force_vx	   R_ground_force_vy	   R_ground_force_vz	   R_ground_force_px	   R_ground_force_py	   R_ground_force_pz	   L_ground_torque_x	   L_ground_torque_y	   L_ground_torque_z	   R_ground_torque_x	   R_ground_torque_y	   R_ground_torque_z	
          2.72000000	          0.01273662	          0.04987079	          0.00481876	         -0.00014274	          0.00000000	         -0.00003360	        -31.84369085	        936.36891987	        -61.39927590	          0.35714257	          0.00000000	          0.13921769	          0.00000000	          0.00023472	          0.00000000	          0.00000000	          8.76591408	          0.00000000	
          2.72500000	          0.00639081	          0.02944897	          0.00342316	         -0.00011445	          0.00000000	         -0.00002831	        -31.06824474	        928.58572433	        -60.70506897	          0.35940635	          0.00000000	          0.13964429	          0.00000000	          0.00018100	          0.00000000	          0.00000000	          8.61429211	          0.00000000	
          2.73000000	          0.00181594	          0.01402379	          0.00225745	         -0.00008726	          0.00000000	         -0.00002268	        -30.35851716	        921.39273363	        -59.92233931	          0.36167269	          0.00000000	          0.14006490	          0.00000000	          0.00013224	          0.00000000	          0.00000000	          8.49110715	          0.00000000	
          2.73500000	         -0.00126146	          0.00302281	          0.00133137	         -0.00006292	          0.00000000	         -0.00001727	        -29.69517346	        914.90398756	        -59.04946253	          0.36392276	          0.00000000	          0.14047671	          0.00000000	          0.00009051	          0.00000000	          0.00000000	          8.39372090	          0.00000000	
          2.74000000	         -0.00313517	         -0.00427098	          0.00063220	         -0.00004234	          0.00000000	         -0.00001244	        -29.05656184	        909.20191750	        -58.10413834	          0.36613933	          0.00000000	          0.14087783	          0.00000000	          0.00005660	          0.00000000	          0.00000000	          8.31800576	          0.00000000	
          2.74500000	         -0.00408879	         -0.00861056	          0.00013383	         -0.00002579	          0.00000000	         -0.00000836	        -28.42037657	        904.33354698	        -57.12198373	          0.36830890	          0.00000000	          0.14126687	          0.00000000	          0.00003037	          0.00000000	          0.00000000	          8.25855919	          0.00000000	
          2.75000000	         -0.00437696	         -0.01071245	         -0.00019634	         -0.00001314	          0.00000000	         -0.00000508	        -27.76482145	        900.31337299	        -56.15097943	          0.37042193	          0.00000000	          0.14164355	          0.00000000	          0.00001115	          0.00000000	          0.00000000	          8.20977908	          0.00000000	
          2.75500000	         -0.00421559	         -0.01121313	         -0.00039255	         -0.00000398	          0.00000000	         -0.00000257	        -27.06942361	        897.13032370	        -55.24434436	          0.37247099	          0.00000000	          0.14200824	          0.00000000	         -0.00000206	          0.00000000	          0.00000000	          8.16666645	          0.00000000	
          2.76000000	         -0.00377870	         -0.01064739	         -0.00048733	          0.00000220	          0.00000000	         -0.00000076	        -26.31569851	        894.75595304	        -54.45295458	          0.37445020	          0.00000000	          0.14236154	          0.00000000	         -0.00001037	          0.00000000	          0.00000000	          8.12473694	          0.00000000	
          2.76500000	         -0.00319968	         -0.00944250	         -0.00050957	          0.00000599	          0.00000000	          0.00000046	        -25.48760592	        893.15482457	        -53.81909864	          0.37635559	          0.00000000	          0.14270430	          0.00000000	         -0.00001487	          0.00000000	          0.00000000	          8.08023463	          0.00000000	
